<svg width="145" height="32" viewBox="0 0 145 32" fill="none" xmlns="http://www.w3.org/2000/svg">
<path d="M2.34434 24V8H12.9615V10.7891H5.72715V13.9141H8.32871C9.59434 13.9141 10.6855 14.1198 11.6022 14.5312C12.524 14.9375 13.235 15.513 13.735 16.2578C14.235 17.0026 14.485 17.8802 14.485 18.8906C14.485 19.8958 14.235 20.7839 13.735 21.5547C13.235 22.3203 12.524 22.9193 11.6022 23.3516C10.6855 23.7839 9.59434 24 8.32871 24H2.34434ZM5.72715 21.2812H8.32871C8.93288 21.2812 9.4433 21.1719 9.85996 20.9531C10.2766 20.7292 10.5917 20.4349 10.8053 20.0703C11.024 19.7005 11.1334 19.2969 11.1334 18.8594C11.1334 18.224 10.8912 17.6875 10.4068 17.25C9.92767 16.8073 9.23496 16.5859 8.32871 16.5859H5.72715V21.2812ZM21.1338 24.2266C20.3682 24.2266 19.6859 24.0938 19.0869 23.8281C18.488 23.5573 18.014 23.1589 17.665 22.6328C17.3213 22.1016 17.1494 21.4401 17.1494 20.6484C17.1494 19.9818 17.2718 19.4219 17.5166 18.9687C17.7614 18.5156 18.0947 18.151 18.5166 17.875C18.9385 17.599 19.4176 17.3906 19.9541 17.25C20.4958 17.1094 21.0635 17.0104 21.6572 16.9531C22.3551 16.8802 22.9176 16.8125 23.3447 16.75C23.7718 16.6823 24.0817 16.5833 24.2744 16.4531C24.4671 16.3229 24.5635 16.1302 24.5635 15.875V15.8281C24.5635 15.3333 24.4072 14.9505 24.0947 14.6797C23.7874 14.4089 23.3499 14.2734 22.7822 14.2734C22.1833 14.2734 21.7067 14.4062 21.3525 14.6719C20.9984 14.9323 20.764 15.2604 20.6494 15.6562L17.5713 15.4062C17.7275 14.6771 18.0348 14.0469 18.4932 13.5156C18.9515 12.9792 19.5426 12.5677 20.2666 12.2812C20.9958 11.9896 21.8395 11.8438 22.7979 11.8438C23.4645 11.8438 24.1025 11.9219 24.7119 12.0781C25.3265 12.2344 25.8708 12.4766 26.3447 12.8047C26.8239 13.1328 27.2015 13.5547 27.4775 14.0703C27.7536 14.5807 27.8916 15.1927 27.8916 15.9062V24H24.7354V22.3359H24.6416C24.4489 22.7109 24.1911 23.0417 23.8682 23.3281C23.5452 23.6094 23.1572 23.8307 22.7041 23.9922C22.251 24.1484 21.7275 24.2266 21.1338 24.2266ZM22.0869 21.9297C22.5765 21.9297 23.0088 21.8333 23.3838 21.6406C23.7588 21.4427 24.0531 21.1771 24.2666 20.8438C24.4801 20.5104 24.5869 20.1328 24.5869 19.7109V18.4375C24.4827 18.5052 24.3395 18.5677 24.1572 18.625C23.9801 18.6771 23.7796 18.7266 23.5557 18.7734C23.3317 18.8151 23.1077 18.8542 22.8838 18.8906C22.6598 18.9219 22.4567 18.9505 22.2744 18.9766C21.8838 19.0339 21.5426 19.125 21.251 19.25C20.9593 19.375 20.7327 19.5443 20.5713 19.7578C20.4098 19.9661 20.3291 20.2266 20.3291 20.5391C20.3291 20.9922 20.4932 21.3385 20.8213 21.5781C21.1546 21.8125 21.5765 21.9297 22.0869 21.9297ZM33.1986 28.5C32.7768 28.5 32.3809 28.4661 32.0111 28.3984C31.6466 28.3359 31.3445 28.2552 31.1049 28.1562L31.8549 25.6719C32.2455 25.7917 32.5971 25.8568 32.9096 25.8672C33.2273 25.8776 33.5007 25.8047 33.7299 25.6484C33.9643 25.4922 34.1544 25.2266 34.3002 24.8516L34.4955 24.3438L30.1908 12H33.6908L36.1752 20.8125H36.3002L38.808 12H42.3314L37.6674 25.2969C37.4434 25.9427 37.1387 26.5052 36.7533 26.9844C36.3731 27.4688 35.8913 27.8411 35.308 28.1016C34.7247 28.3672 34.0216 28.5 33.1986 28.5ZM52.2283 20.3203L55.4783 12H58.0096L53.3299 24H51.1189L46.5486 12H49.0721L52.2283 20.3203ZM48.3143 12V24H45.1346V12H48.3143ZM56.3064 24V12H59.4471V24H56.3064ZM66.5432 24.2266C65.7775 24.2266 65.0953 24.0938 64.4963 23.8281C63.8973 23.5573 63.4234 23.1589 63.0744 22.6328C62.7307 22.1016 62.5588 21.4401 62.5588 20.6484C62.5588 19.9818 62.6812 19.4219 62.926 18.9687C63.1708 18.5156 63.5041 18.151 63.926 17.875C64.3479 17.599 64.827 17.3906 65.3635 17.25C65.9051 17.1094 66.4729 17.0104 67.0666 16.9531C67.7645 16.8802 68.327 16.8125 68.7541 16.75C69.1812 16.6823 69.4911 16.5833 69.6838 16.4531C69.8765 16.3229 69.9729 16.1302 69.9729 15.875V15.8281C69.9729 15.3333 69.8166 14.9505 69.5041 14.6797C69.1968 14.4089 68.7593 14.2734 68.1916 14.2734C67.5926 14.2734 67.1161 14.4062 66.7619 14.6719C66.4078 14.9323 66.1734 15.2604 66.0588 15.6562L62.9807 15.4062C63.1369 14.6771 63.4442 14.0469 63.9025 13.5156C64.3609 12.9792 64.952 12.5677 65.676 12.2812C66.4051 11.9896 67.2489 11.8438 68.2072 11.8438C68.8739 11.8438 69.5119 11.9219 70.1213 12.0781C70.7359 12.2344 71.2801 12.4766 71.7541 12.8047C72.2333 13.1328 72.6109 13.5547 72.8869 14.0703C73.163 14.5807 73.301 15.1927 73.301 15.9062V24H70.1447V22.3359H70.051C69.8583 22.7109 69.6005 23.0417 69.2775 23.3281C68.9546 23.6094 68.5666 23.8307 68.1135 23.9922C67.6604 24.1484 67.1369 24.2266 66.5432 24.2266ZM67.4963 21.9297C67.9859 21.9297 68.4182 21.8333 68.7932 21.6406C69.1682 21.4427 69.4624 21.1771 69.676 20.8438C69.8895 20.5104 69.9963 20.1328 69.9963 19.7109V18.4375C69.8921 18.5052 69.7489 18.5677 69.5666 18.625C69.3895 18.6771 69.189 18.7266 68.965 18.7734C68.7411 18.8151 68.5171 18.8542 68.2932 18.8906C68.0692 18.9219 67.8661 18.9505 67.6838 18.9766C67.2932 19.0339 66.952 19.125 66.6604 19.25C66.3687 19.375 66.1421 19.5443 65.9807 19.7578C65.8192 19.9661 65.7385 20.2266 65.7385 20.5391C65.7385 20.9922 65.9025 21.3385 66.2307 21.5781C66.564 21.8125 66.9859 21.9297 67.4963 21.9297ZM85.3346 16.6719V19.2891H79.0689V16.6719H85.3346ZM80.1627 12V24H76.983V12H80.1627ZM87.4205 12V24H84.2643V12H87.4205ZM94.5479 8V24H91.165V8H94.5479ZM104.103 24H98.4311V8H104.15C105.759 8 107.145 8.32031 108.306 8.96094C109.468 9.59635 110.361 10.5104 110.986 11.7031C111.616 12.8958 111.931 14.3229 111.931 15.9844C111.931 17.651 111.616 19.0833 110.986 20.2812C110.361 21.4792 109.462 22.3984 108.29 23.0391C107.124 23.6797 105.728 24 104.103 24ZM101.814 21.1016H103.962C104.962 21.1016 105.803 20.9245 106.486 20.5703C107.173 20.2109 107.689 19.6562 108.033 18.9062C108.382 18.151 108.556 17.1771 108.556 15.9844C108.556 14.8021 108.382 13.8359 108.033 13.0859C107.689 12.3359 107.176 11.7839 106.494 11.4297C105.811 11.0755 104.97 10.8984 103.97 10.8984H101.814V21.1016Z" fill="#346BE2"/>
<path d="M140.125 19.75H137.125C136.918 19.75 136.75 19.9179 136.75 20.125V23.125C136.75 23.3321 136.918 23.5 137.125 23.5H140.125C140.332 23.5 140.5 23.3321 140.5 23.125V20.125C140.5 19.9179 140.332 19.75 140.125 19.75Z" fill="#346BE2"/>
<path d="M136.375 16.75H134.125C133.918 16.75 133.75 16.9179 133.75 17.125V19.375C133.75 19.5821 133.918 19.75 134.125 19.75H136.375C136.582 19.75 136.75 19.5821 136.75 19.375V17.125C136.75 16.9179 136.582 16.75 136.375 16.75Z" fill="#346BE2"/>
<path d="M143.125 23.5H140.875C140.668 23.5 140.5 23.6679 140.5 23.875V26.125C140.5 26.3321 140.668 26.5 140.875 26.5H143.125C143.332 26.5 143.5 26.3321 143.5 26.125V23.875C143.5 23.6679 143.332 23.5 143.125 23.5Z" fill="#346BE2"/>
<path d="M143.125 16.75H141.625C141.418 16.75 141.25 16.9179 141.25 17.125V18.625C141.25 18.8321 141.418 19 141.625 19H143.125C143.332 19 143.5 18.8321 143.5 18.625V17.125C143.5 16.9179 143.332 16.75 143.125 16.75Z" fill="#346BE2"/>
<path d="M135.625 24.25H134.125C133.918 24.25 133.75 24.4179 133.75 24.625V26.125C133.75 26.3321 133.918 26.5 134.125 26.5H135.625C135.832 26.5 136 26.3321 136 26.125V24.625C136 24.4179 135.832 24.25 135.625 24.25Z" fill="#346BE2"/>
<path d="M142 5.5H135.25C134.852 5.5 134.471 5.65804 134.189 5.93934C133.908 6.22064 133.75 6.60218 133.75 7V13.75C133.75 14.1478 133.908 14.5294 134.189 14.8107C134.471 15.092 134.852 15.25 135.25 15.25H142C142.398 15.25 142.779 15.092 143.061 14.8107C143.342 14.5294 143.5 14.1478 143.5 13.75V7C143.5 6.60218 143.342 6.22064 143.061 5.93934C142.779 5.65804 142.398 5.5 142 5.5ZM140.5 11.875C140.5 11.9745 140.46 12.0698 140.39 12.1402C140.32 12.2105 140.224 12.25 140.125 12.25H137.125C137.026 12.25 136.93 12.2105 136.86 12.1402C136.79 12.0698 136.75 11.9745 136.75 11.875V8.875C136.75 8.77554 136.79 8.68016 136.86 8.60984C136.93 8.53951 137.026 8.5 137.125 8.5H140.125C140.224 8.5 140.32 8.53951 140.39 8.60984C140.46 8.68016 140.5 8.77554 140.5 8.875V11.875Z" fill="#346BE2"/>
<path d="M130.75 5.5H124C123.602 5.5 123.221 5.65804 122.939 5.93934C122.658 6.22064 122.5 6.60218 122.5 7V13.75C122.5 14.1478 122.658 14.5294 122.939 14.8107C123.221 15.092 123.602 15.25 124 15.25H130.75C131.148 15.25 131.529 15.092 131.811 14.8107C132.092 14.5294 132.25 14.1478 132.25 13.75V7C132.25 6.60218 132.092 6.22064 131.811 5.93934C131.529 5.65804 131.148 5.5 130.75 5.5ZM129.25 11.875C129.25 11.9745 129.21 12.0698 129.14 12.1402C129.07 12.2105 128.974 12.25 128.875 12.25H125.875C125.776 12.25 125.68 12.2105 125.61 12.1402C125.54 12.0698 125.5 11.9745 125.5 11.875V8.875C125.5 8.77554 125.54 8.68016 125.61 8.60984C125.68 8.53951 125.776 8.5 125.875 8.5H128.875C128.974 8.5 129.07 8.53951 129.14 8.60984C129.21 8.68016 129.25 8.77554 129.25 8.875V11.875Z" fill="#346BE2"/>
<path d="M130.75 16.75H124C123.602 16.75 123.221 16.908 122.939 17.1893C122.658 17.4706 122.5 17.8522 122.5 18.25V25C122.5 25.3978 122.658 25.7794 122.939 26.0607C123.221 26.342 123.602 26.5 124 26.5H130.75C131.148 26.5 131.529 26.342 131.811 26.0607C132.092 25.7794 132.25 25.3978 132.25 25V18.25C132.25 17.8522 132.092 17.4706 131.811 17.1893C131.529 16.908 131.148 16.75 130.75 16.75ZM129.25 23.125C129.25 23.2245 129.21 23.3198 129.14 23.3902C129.07 23.4605 128.974 23.5 128.875 23.5H125.875C125.776 23.5 125.68 23.4605 125.61 23.3902C125.54 23.3198 125.5 23.2245 125.5 23.125V20.125C125.5 20.0255 125.54 19.9302 125.61 19.8598C125.68 19.7895 125.776 19.75 125.875 19.75H128.875C128.974 19.75 129.07 19.7895 129.14 19.8598C129.21 19.9302 129.25 20.0255 129.25 20.125V23.125Z" fill="#346BE2"/>
</svg>
